<?xml version="1.0" encoding="UTF-8"?><svg xmlns="http://www.w3.org/2000/svg" viewBox="0 0 138.05 106.32"><defs><style>.cls-1{fill:#5162b8;}.cls-2{fill:#e95e7e;}.cls-3{fill:#61bcf8;}</style></defs><g id="Ebene_1"><path class="cls-3" d="M103.73,20.05v42.49c0,5.36-4.35,9.71-9.71,9.71-4.77,0-5.67-.77-9.09-4.19-1.97-1.97-3.93-3.93-5.9-5.9h6.29c5.38,0,9.73-4.35,9.73-9.71s-1.65-6.55-5.23-10.15c-4.01-4.01-8.03-8.02-12.04-12.02-6.65-6.65-13.28-13.29-19.93-19.94h36.17c5.36,0,9.71,4.35,9.71,9.71Z"/><path class="cls-1" d="M89.81,42.3c3.58,3.6,5.23,4.72,5.23,10.15s-4.35,9.71-9.73,9.71h-6.29c-6.65-6.63-13.31-13.29-19.94-19.94-4.02-4.01-8.03-8.02-12.04-12.04-3.6-3.58-5.23-4.71-5.23-10.13s4.35-9.71,9.71-9.71h6.32c6.65,6.65,13.28,13.29,19.93,19.94,4.01,4.01,8.03,8.02,12.04,12.02Z"/><path class="cls-2" d="M79.03,62.17h-36.18c-5.36,0-9.71-4.35-9.71-9.73V9.96c0-5.36,4.35-9.71,9.71-9.71,4.77,0,5.67.75,9.09,4.17l5.91,5.91h-6.32c-5.36,0-9.71,4.35-9.71,9.71s1.63,6.55,5.23,10.13c4.01,4.02,8.02,8.03,12.04,12.04,6.63,6.65,13.29,13.31,19.94,19.94Z"/></g><g id="Ebene_2"><path d="M5.73,84.74h1.78v15.27h9.41v1.54H5.73v-16.8Z"/><path d="M29.08,93.72v7.82h-1.63v-1.97c-.77,1.3-2.26,2.09-4.34,2.09-2.86,0-4.61-1.49-4.61-3.67,0-1.94,1.25-3.58,4.87-3.58h4.01v-.77c0-2.16-1.22-3.34-3.58-3.34-1.63,0-3.17.58-4.2,1.49l-.77-1.27c1.27-1.08,3.14-1.7,5.14-1.7,3.26,0,5.11,1.63,5.11,4.9ZM27.37,97.75v-2.06h-3.96c-2.45,0-3.24.96-3.24,2.26,0,1.46,1.18,2.38,3.19,2.38s3.34-.91,4.01-2.57Z"/><path d="M44.08,88.92l-6.31,14.14c-1.06,2.47-2.4,3.26-4.2,3.26-1.18,0-2.3-.38-3.07-1.15l.79-1.27c.62.62,1.39.96,2.3.96,1.13,0,1.9-.53,2.62-2.11l.55-1.22-5.64-12.6h1.78l4.75,10.73,4.75-10.73h1.68Z"/><path d="M57.11,95.76h-10.56c.19,2.64,2.21,4.39,4.97,4.39,1.54,0,2.9-.55,3.86-1.66l.96,1.1c-1.13,1.34-2.88,2.06-4.87,2.06-3.94,0-6.62-2.69-6.62-6.43s2.62-6.41,6.17-6.41,6.12,2.62,6.12,6.41c0,.14-.02.34-.02.53ZM46.55,94.48h8.95c-.22-2.47-2.02-4.2-4.49-4.2s-4.25,1.73-4.46,4.2Z"/><path d="M66.97,88.82v1.66c-.14,0-.29-.02-.41-.02-2.64,0-4.25,1.68-4.25,4.66v6.43h-1.7v-12.62h1.63v2.47c.79-1.68,2.4-2.57,4.73-2.57Z"/><path d="M72.01,86.27v6.6h8.69v1.54h-8.69v7.13h-1.78v-16.8h11.52v1.54h-9.74Z"/><path d="M83.36,95.23c0-3.74,2.74-6.41,6.43-6.41s6.41,2.66,6.41,6.41-2.71,6.43-6.41,6.43-6.43-2.69-6.43-6.43ZM94.48,95.23c0-2.95-1.99-4.92-4.68-4.92s-4.71,1.97-4.71,4.92,2.02,4.92,4.71,4.92,4.68-1.97,4.68-4.92Z"/><path d="M106.04,88.82v1.66c-.14,0-.29-.02-.41-.02-2.64,0-4.25,1.68-4.25,4.66v6.43h-1.7v-12.62h1.63v2.47c.79-1.68,2.4-2.57,4.73-2.57Z"/><path d="M120.69,88.92v11.09c0,4.34-2.14,6.31-6.31,6.31-2.3,0-4.56-.7-5.88-1.94l.86-1.3c1.2,1.08,3.02,1.73,4.97,1.73,3.19,0,4.66-1.46,4.66-4.58v-1.61c-1.06,1.61-2.86,2.45-4.92,2.45-3.6,0-6.34-2.52-6.34-6.14s2.74-6.1,6.34-6.1c2.11,0,3.94.86,4.99,2.52v-2.42h1.63ZM119.03,94.92c0-2.74-2.02-4.61-4.8-4.61s-4.78,1.87-4.78,4.61,1.99,4.63,4.78,4.63,4.8-1.9,4.8-4.63Z"/><path d="M136.45,95.76h-10.56c.19,2.64,2.21,4.39,4.97,4.39,1.54,0,2.9-.55,3.86-1.66l.96,1.1c-1.13,1.34-2.88,2.06-4.87,2.06-3.94,0-6.62-2.69-6.62-6.43s2.62-6.41,6.17-6.41,6.12,2.62,6.12,6.41c0,.14-.02.34-.02.53ZM125.89,94.48h8.95c-.22-2.47-2.02-4.2-4.49-4.2s-4.25,1.73-4.46,4.2Z"/></g></svg>