<?xml version="1.0" encoding="UTF-8"?><svg id="Ebene_1" xmlns="http://www.w3.org/2000/svg" viewBox="0 0 138.05 100.71"><defs><style>.cls-1{fill:#5162b8;}.cls-2{fill:#e95e7e;}.cls-3{fill:#61bcf8;}</style></defs><path d="M11.51,90.93c0,3.13-2.27,5.02-6,5.02H1.55v4.64H0v-14.7h5.5c3.74,0,6,1.89,6,5.04ZM9.95,90.93c0-2.35-1.55-3.7-4.49-3.7H1.55v7.35h3.91c2.94,0,4.49-1.34,4.49-3.65Z"/><path d="M24.9,100.59l-3.36-4.72c-.38.04-.76.06-1.18.06h-3.95v4.66h-1.55v-14.7h5.5c3.74,0,6,1.89,6,5.04,0,2.31-1.22,3.93-3.36,4.62l3.59,5.04h-1.7ZM24.82,90.93c0-2.35-1.55-3.7-4.49-3.7h-3.91v7.37h3.91c2.94,0,4.49-1.37,4.49-3.67Z"/><path d="M30.05,85.89h1.55v14.7h-1.55v-14.7Z"/><path d="M48.67,85.89v14.7h-1.28l-9.45-11.93v11.93h-1.55v-14.7h1.28l9.47,11.93v-11.93h1.53Z"/><path d="M56.32,87.24h-5.17v-1.34h11.88v1.34h-5.17v13.35h-1.55v-13.35Z"/><path d="M67.07,87.24v5.77h7.6v1.34h-7.6v6.24h-1.55v-14.7h10.08v1.34h-8.52Z"/><path d="M77.32,93.24c0-4.28,3.28-7.47,7.73-7.47s7.71,3.17,7.71,7.47-3.3,7.47-7.71,7.47-7.73-3.19-7.73-7.47ZM91.2,93.24c0-3.51-2.62-6.09-6.15-6.09s-6.19,2.58-6.19,6.09,2.65,6.09,6.19,6.09,6.15-2.58,6.15-6.09Z"/><path d="M106.28,100.59l-3.36-4.72c-.38.04-.76.06-1.18.06h-3.95v4.66h-1.55v-14.7h5.5c3.74,0,6,1.89,6,5.04,0,2.31-1.22,3.93-3.36,4.62l3.59,5.04h-1.7ZM106.19,90.93c0-2.35-1.55-3.7-4.49-3.7h-3.91v7.37h3.91c2.94,0,4.49-1.37,4.49-3.67Z"/><path d="M121.78,93.24h1.49v5.61c-1.39,1.24-3.36,1.87-5.4,1.87-4.47,0-7.75-3.17-7.75-7.47s3.28-7.47,7.77-7.47c2.23,0,4.16.71,5.46,2.12l-.97.99c-1.24-1.22-2.71-1.72-4.43-1.72-3.63,0-6.3,2.58-6.3,6.09s2.67,6.09,6.28,6.09c1.41,0,2.71-.32,3.84-1.13v-4.96Z"/><path d="M138.05,99.25v1.34h-10.39v-14.7h10.08v1.34h-8.52v5.23h7.6v1.32h-7.6v5.46h8.84Z"/><path class="cls-3" d="M103.73,20.05v42.49c0,5.36-4.35,9.71-9.71,9.71-4.77,0-5.67-.77-9.09-4.19-1.97-1.97-3.93-3.93-5.9-5.9h6.29c5.38,0,9.73-4.35,9.73-9.71s-1.65-6.55-5.23-10.15c-4.01-4.01-8.03-8.02-12.04-12.02-6.65-6.65-13.28-13.29-19.93-19.94h36.17c5.36,0,9.71,4.35,9.71,9.71Z"/><path class="cls-1" d="M89.81,42.3c3.58,3.6,5.23,4.72,5.23,10.15s-4.35,9.71-9.73,9.71h-6.29c-6.65-6.63-13.31-13.29-19.94-19.94-4.02-4.01-8.03-8.02-12.04-12.04-3.6-3.58-5.23-4.71-5.23-10.13s4.35-9.71,9.71-9.71h6.32c6.65,6.65,13.28,13.29,19.93,19.94,4.01,4.01,8.03,8.02,12.04,12.02Z"/><path class="cls-2" d="M79.03,62.17h-36.18c-5.36,0-9.71-4.35-9.71-9.73V9.96c0-5.36,4.35-9.71,9.71-9.71,4.77,0,5.67.75,9.09,4.17l5.91,5.91h-6.32c-5.36,0-9.71,4.35-9.71,9.71s1.63,6.55,5.23,10.13c4.01,4.02,8.02,8.03,12.04,12.04,6.63,6.65,13.29,13.31,19.94,19.94Z"/></svg>